<?xml version="1.0" encoding="utf-8"?>
<!-- Generator: Adobe Illustrator 23.0.2, SVG Export Plug-In . SVG Version: 6.00 Build 0)  -->
<svg version="1.1" id="Layer_1" xmlns="http://www.w3.org/2000/svg" xmlns:xlink="http://www.w3.org/1999/xlink" x="0px" y="0px"
	 viewBox="0 0 612 792" style="enable-background:new 0 0 612 792;" xml:space="preserve">
<style type="text/css">
	.st0{fill:#030303;}
	.st1{fill:#010101;}
	.st2{fill:#020202;}
	.st3{fill:#0B5090;}
	.st4{fill:#060606;}
	.st5{fill:#0C5091;}
	.st6{fill:#F9D70B;}
	.st7{fill:#080808;}
	.st8{fill:#131313;}
	.st9{fill:#FFFFFF;}
	.st10{fill:#0C0C0C;}
</style>
<g>
	<path class="st0" d="M546.97,270.2c0,29.13,0,58.14,0,87.25c-1.17,0-2.29,0-3.63,0c0-27.79,0-55.63,0-83.54
		c-161.46,0-322.7,0-484.06,0c0,75.86,0,151.73,0,227.62c2.58,0.49,472.64,0.71,483.91,0.2c0-21.93,0-43.87,0-65.95
		c1.29,0,2.48,0,3.76,0c0,23.19,0,46.37,0,69.56c-2.64,0.32-487.26,0.39-491.47,0.07c0-78.36,0-156.73,0-235.2
		C219.25,270.2,382.99,270.2,546.97,270.2z"/>
	<path class="st1" d="M145.37,391.27c0.03,2.3-1.37,4.33-1.32,6.63c-0.97,0.69-0.64,1.76-0.49,2.57c0.19,1.05-0.86,1.58-0.7,2.57
		c0.33,2.04-0.88,3.9-0.65,5.99c0.22,2.06,0.07,4.16,0.04,6.24c-0.03,3.21,0.96,6.21,1.66,9.29c0.4,1.75,1.3,3.25,1.76,4.9
		c0.49,1.75,1.99,2.91,2.29,4.68c2.32,2.51,4.18,5.45,7.24,7.27c3.24,1.94,6.43,3.99,10.09,5.04c2.74,0.78,5.44,1.89,8.37,1.64
		c1.35-0.11,2.4,0.93,3.81,0.69c1.32-0.22,2.73-0.23,4.04,0c1.6,0.27,2.9-0.75,4.43-0.71c1.48,0.04,2.95-0.17,4.45-0.44
		c2.13-0.39,4.22-0.94,6.34-1.33c2.52-0.45,4.81-1.52,7.22-2.23c0.82-0.24,1.59-0.1,2.59-0.53c-0.19,2.69,0.36,5.1-0.46,7.67
		c-0.6,1.89-0.04,4.13-0.13,6.21c-0.22,4.79-1.98,8.95-5.23,12.51c-1.61,1.77-3.8,2.59-5.91,3.05c-2.69,0.58-5.36,1.55-8.2,1.38
		c-1.29-0.08-2.4,0.85-3.81,0.67c-1.13-0.14-2.46-0.5-3.49,0.55c-0.1,0.1-0.4,0.02-0.61,0.01c-5.55-0.24-11.07,1.3-16.59,0.55
		c-3.16-0.43-6.33-0.2-9.42-0.66c-2.12-0.32-4.25-0.21-6.3-0.6c-1.49-0.28-2.95-0.72-4.44-0.5c-1.59,0.24-2.94-0.58-4.42-0.78
		c-2.35-0.32-4.66-1.27-6.62-2.78c-1.31-1.02-2.7-1.84-3.58-3.44c-0.69-1.24-1.84-2.45-3.47-2.88c-2.47-0.38-4.9,0.16-7.07,1.36
		c-0.9,0.5-1.74,0.3-2.59,0.53c-3.08,0.85-6.27,0.7-9.38,0.15c-2.27-0.4-4.42-1.38-6.62-2.07c-3.03-0.97-5.65-2.34-7.74-4.77
		c-0.5-1.77,0.37-3.24,1.18-4.72c0.22-0.49,0.52-0.96,1.05-1.08c4.78-1.04,7.44-4.66,10.12-8.24c2.12-2.82,4.33-5.58,6.27-8.54
		c1.97-2.91,3.95-5.81,5.84-8.77c2.76-4.27,5.05-8.78,6.84-13.53c1.09-3.26,2.49-6.4,3.43-9.71c0.96-2.75,1.61-5.59,2.33-8.4
		c0.31-1.2,0.56-2.45,1.63-3.28c3.42-1.27,7.09-1.35,10.6-2.17C141.64,391.19,143.51,389.92,145.37,391.27z"/>
	<path class="st1" d="M114.76,364.41c-0.73-2.5-1.47-5.01-2.21-7.51c-0.05-0.18-0.29-0.35-0.27-0.5c0.32-3.18-1.17-6.25-0.6-9.41
		c0.27-1.48,0.73-2.9,0.59-4.43c-0.14-1.52,0.62-2.87,0.89-4.31c0.27-1.43,0.63-2.85,1.11-4.22c0.48-1.36,1.14-2.65,1.75-3.96
		c0.61-1.31,1.11-2.69,1.89-3.89c3.25-5,7.05-9.37,12.53-12.18c4.14-2.12,8.3-4.04,12.8-5.3c1.81-0.51,3.57-0.98,5.45-1.18
		c1.99-0.22,3.95-0.72,5.99-0.58c6.22,0.42,12.19,1.63,17.69,4.78c3.86,2.21,6.79,5.26,9.24,8.88c1.21,1.79,1.78,3.84,2.61,5.79
		c1.2,2.83,2.71,5.56,4.55,8.13c3.06,4.28,7.01,7.32,11.63,9.59c1.46,0.72,3.07,1.16,4.67,1.52c0.7,0.15,1.04,0.57,1.51,0.96
		c0,0.6,0,1.22,0,1.86c-2.57,3.13-6.46,4.97-8.72,8.47c-1.71,2.29-4.35,3.15-6.81,4.17c-2.96,1.23-6.03,2.23-9.17,2.98
		c-2.75,0.88-5.49,1.81-8.32,2.43c-3.99,1.04-7.99,2.01-12.01,2.91c-2.47,0.64-5,1-7.51,1.43c-5.8,0.71-11.72,0.48-17.34,2.42
		c-2.94,0.67-5.65,2.05-8.52,2.93c-0.95,0.19-1.93,0.13-2.62-0.52C121.76,372.09,117.67,368.82,114.76,364.41z"/>
	<path class="st1" d="M225.89,316.62c0.87-0.36,0.96-1.27,1.13-1.79c1.11-3.52,3.15-6.43,5.84-8.79c3.1-2.73,6.72-4.5,10.85-5.44
		c2.35-0.53,4.66-0.7,6.93-0.47c4.95,0.5,9.45,2.25,13.24,5.66c2.88,2.59,4.81,5.77,6.42,9.21c0.11,0.23,1.25,4.57,1.25,4.79
		c0,1.56-0.05,3.12,0.01,4.68c0.18,4.51-1.44,8.48-3.81,12.15c-2.02,3.15-5.96,6.2-9.75,7.91c-2.34,1.06-4.7,2.02-7.38,1.79
		c-1.24-0.11-2.5-0.07-3.74-0.01c-4,0.18-7.55-1.26-10.77-3.35c-4.08-2.65-7.22-6.19-9.1-10.81c-0.36-0.88-0.17-2.01-1.05-2.68
		c0.28-1.54-0.93-2.82-0.67-4.43c0.23-1.42-0.02-2.91,0.07-4.36C225.43,319.3,226.33,318.04,225.89,316.62z"/>
	<path class="st2" d="M357.76,407.43c-2.42,0-4.57,0-6.83,0c0-7.02,0-13.96,0-20.24c-0.77-2.34-2.24-3.34-3.4-4.59
		c-0.56-0.24-1.14-0.16-1.73-0.38c-2.92-1.11-7.99,1.6-8.64,4.51c-0.16,0.69-0.02,1.45-0.02,2.18c0,6.13,0,12.25,0,18.49
		c-2.23,0-4.38,0-6.67,0c-0.49-0.6-0.18-1.45-0.18-2.23c-0.04-4.47-0.01-8.94-0.02-13.42c-0.01-2.32,0.29-4.68-1.02-7.47
		c-0.5-0.69-1.65-1.64-3.25-2.36c-1.27-0.02-2.7,0.05-4.19,0.55c-2.15,0.72-3.68,2.05-4.47,4.03c-0.49,1.24-0.87,2.58-0.85,4.04
		c0.1,5.6,0.04,11.2,0.04,16.89c-2.28,0-4.43,0-6.73,0c0-10.9,0-21.87,0-32.93c2.15,0,4.3,0,6.53,0c0.53,1.08-0.1,2.37,0.4,3.7
		c1.64-0.16,2.08-1.84,2.75-2.2c3.45-1.16,6.37-2.28,9.53-1.3c2.99,0.93,5.78,2.12,6.97,5.52c2.31-3.81,5.55-5.57,9.61-5.78
		c1.58-0.08,3.13-0.08,4.76,0.51c2.94,1.06,4.96,3,6.32,5.62c0.7,1.35,1.12,2.91,1.11,4.53
		C357.75,392.48,357.76,399.86,357.76,407.43z"/>
	<path class="st2" d="M540.23,377.61c0.68-0.28,0.49-0.77,0.71-1.22c1.89,0,3.84,0,5.9,0c0.47,0.62,0.18,1.48,0.18,2.27
		c0.02,10.72-0.01,21.44,0.04,32.16c0.01,2.27-0.94,4.02-2.38,5.58c-1.7,1.85-3.97,2.9-6.31,3.57c-3.89,1.11-7.93,0.6-11.91,0.67
		c-2.37-1.08-5.31-0.59-7.44-2.71c0-1.85,0-3.8,0-5.81c0.59-0.41,1.12-0.17,1.86,0.09c2.5,0.89,5.04,1.77,7.79,1.58
		c1.66-0.11,3.33,0.06,4.99-0.04c2.96-0.18,5.76-0.75,7.05-4.35c0-1.35,0-3.09,0-4.87c-2.1,0.54-3.77,1.85-5.79,2.51
		c-1.98,0.65-3.93,0.7-5.69,0.34c-2.1-0.42-4.22-1.18-6.07-2.68c-3.15-2.55-5-5.52-6.2-9.61c-0.96-3.28-0.83-6.5,0.19-9.46
		c1.7-4.95,4.8-8.97,10.15-10.58C532.09,373.6,535.67,374.29,540.23,377.61z"/>
	<path class="st2" d="M281.04,313.19c1.86,0,3.62,0,5.38,0c0.4,0,0.8,0,1.31,0c0,1.24,0,2.35,0,3.6c1.06,0.05,1.28-1.18,2.28-1.19
		c0.67-0.01,1.28-0.88,2-1.13c1.46-0.51,2.96-1.12,4.47-1.2c1.56-0.08,3.29-0.67,4.74,0.54c4.5,0.15,7.28,3.2,9.87,6.24
		c1.75,2.05,2.57,4.78,2.92,7.5c0.21,1.64,0.22,3.35,0,4.99c-0.36,2.63-1.46,5.09-3.09,7.11c-1.38,1.71-3.02,3.25-4.92,4.55
		c-1.61,1.09-3.53,1.09-5.08,2.11c-4.76,0.45-9.09-0.6-13.03-3.86c0,5.9,0,11.67,0,17.52c-2.17,0-4.11,0-6.09,0
		c-0.19-0.19-0.41-0.41-0.74-0.74C281.04,344.05,281.04,328.78,281.04,313.19z"/>
	<path class="st1" d="M372.82,404.17c0,5.6,0,10.95,0,16.39c-2.16,0-4.11,0-6.19,0c0-15.32,0-30.66,0-46.08c1.99,0,3.94,0,5.91,0
		c0.59,0.92-0.17,2.04,0.56,3.17c4.78-2.57,9.68-4.53,15.31-2.34c2.97,1.15,5.56,2.66,7.43,5.2c4.84,6.58,4.17,15.66-0.27,21.31
		c-1.29,1.65-2.91,3.03-4.94,3.85c-1.36,0.55-4.94,1.79-5.79,1.86c-2.14,0.18-4.28-0.01-6.28-0.68
		C376.67,406.21,374.91,405.16,372.82,404.17z"/>
	<path class="st1" d="M305.18,472.9c-0.33,0.33-0.55,0.55-0.84,0.84c-1.9-0.17-3.98,0.47-5.91-0.95c0-1,0-2.12,0-3.57
		c-1.72,1.25-2.75,2.89-4.48,3.69c-2.61,1.21-5.18,2.28-8.2,2.11c-3.08-0.17-5.74-1.41-8.08-3.1c-3.38-2.45-5.91-6.28-6.57-10.32
		c-0.51-3.15-0.46-6.43,0.61-9.62c1.15-3.46,3.28-6.21,6.05-8.38c1.46-1.15,3.2-2.28,5.24-2.34c1.02-0.03,1.77-0.73,2.86-0.7
		c4.37,0.11,8.15,1.45,11.2,4.64c0.34,0.36,0.59,0.8,1.33,0.98c0-1.19,0-2.39,0-3.63c2.37,0,4.53,0,6.79,0
		C305.18,452.66,305.18,462.72,305.18,472.9z"/>
	<path class="st2" d="M262.75,427.61c0,2.06,0,4.01,0,5.82c-0.55,1.03-1.38,0.96-2.22,0.95c-5.93-0.01-11.86-0.01-17.8-0.01
		c-0.51,0-1.02,0-1.66,0c0,4.38,0,8.69,0,13.11c5.76,0,11.46,0,17.26,0c0,2.26,0,4.42,0,6.79c-5.66,0-11.43,0-17.31,0
		c0,6.54,0,12.86,0,19.16c-4.08,0.57-5.37,0.46-6.89-0.57c0-15.02,0-30.09,0-45.26C243.61,427.61,253.05,427.61,262.75,427.61z"/>
	<path class="st2" d="M329.04,331.92c0.86,1.74,1.08,3.5,2.5,4.76c1.94,1.73,3.97,2.72,6.68,2.81c4,0.14,7.61-0.86,11.28-2.82
		c0,2.48,0,4.71,0,6.98c-1.28,1.32-3.32,0.95-4.74,2.02c-1.96-0.48-3.73,0.66-5.67,0.67c-5.46,0.03-9.81-2.2-13.36-6.18
		c-1.35-1.51-2.97-5.64-2.88-7.82c0.04-1.01-0.63-1.66-0.69-2.55c-0.08-1.15,1.25-7.26,1.97-8.23c2.21-2.97,4.5-5.78,8.2-7.17
		c3.23-1.21,5.63-1.36,9.55-0.66c2.16,0.38,3.76,1.44,5.59,2.4c1.71,0.89,1.82,2.89,3.43,3.62c0.56,2.05,1.68,3.95,1.85,6.09
		c0.16,1.95,0.03,3.92,0.03,6.09C344.83,331.92,336.98,331.92,329.04,331.92z"/>
	<path class="st1" d="M430.26,440.69c2.78,0,5.35,0,7.73,0c2.94,6.95,5.62,13.84,8.64,21.08c2.43-7.51,5.62-14.12,8.28-21.07
		c2.41,0,4.98,0,7.77,0c-6.14,15.35-12.25,30.66-18.41,46.07c-2.41,0-4.98,0-7.84,0c1.64-5.31,4.31-10.09,6.06-15.54
		C438.53,461.38,434.43,451.13,430.26,440.69z"/>
	<path class="st2" d="M260.23,364.02c-1.02,1.99-2.04,3.97-3.05,5.95c-3.32-2.01-6.91-1.49-10.16-1.02
		c-3.12,0.45-6.02,2.33-8.25,4.82c-4.66,5.22-5.63,12.79-2.16,18.74c2.25,3.87,5.63,6.62,9.96,7.72c4.26,1.09,8.52,0.68,12.28-1.67
		c2.06,1.05,2.33,3.33,3.92,4.18c0,0.6,0,1,0,1.29c-2.9,1.83-6.02,3-9.28,3.39c-2.42,0.29-4.97,0.41-7.4-0.14
		c-2.06-0.46-4.05-1.21-5.97-2.16c-3.36-1.67-6.06-4.25-8.24-7.12c-5.8-7.64-5.29-18.78-0.54-26.17c3.07-4.77,7.47-7.94,12.94-9.25
		C249.71,361.3,255.18,361.23,260.23,364.02z"/>
	<path class="st2" d="M302.17,390.92c0.25,4.82-1.69,8.65-5.03,11.98c-3.13,3.11-6.85,4.57-11.19,4.62
		c-5.12,0.05-9.03-2.28-12.56-5.86c-3.02-3.06-3.56-6.87-4.33-10.7c0.67-2.82,0.85-5.76,2.48-8.33c1.5-2.36,3.34-4.3,5.75-5.73
		c2.77-1.64,5.68-2.62,8.94-2.5c4.59,0.17,8.41,1.87,11.54,5.27C300.73,382.88,302.42,386.51,302.17,390.92z"/>
	<path class="st2" d="M508.93,407.46c-2.36,0-4.51,0-6.78,0c0-7.41,0-14.77,0-22.08c-0.55-0.37-0.56-0.94-0.81-1.32
		c-1.12-1.72-3.92-2.73-5.91-2.06c-1.86,0.63-3.67,1.4-5,3.04c-0.92,1.14-1.53,2.24-1.52,3.76c0.05,6.14,0.02,12.28,0.02,18.56
		c-2.24,0-4.47,0-6.79,0c0-10.9,0-21.8,0-32.83c2.19,0,4.42,0,6.77,0c0,1.16,0,2.28,0,3.55c1.29-0.36,1.76-1.58,2.91-2
		c1.07-0.39,2.12-0.88,3.22-1.27c2.1-0.74,4.28-0.7,6.26-0.08c1.05,0.33,2.67-0.45,3.23,1.21c2.61,1.09,3.19,3.4,3.86,5.86
		c0.38,1.4,0.53,2.74,0.53,4.14C508.94,393.02,508.93,400.1,508.93,407.46z"/>
	<path class="st2" d="M390.87,346.23c-2.34,0-4.49,0-6.87,0c0-3.01,0-6,0-8.98c0-3.22-0.13-6.46,0.04-9.67
		c0.13-2.36-0.73-4.24-1.93-6.03c-4.52-1.03-4.52-1.03-9.56,1.45c-0.47,0.92-1.01,1.95-1.62,3.14c0.06,3.16-0.95,6.42-0.73,9.82
		c0.22,3.39,0.05,6.81,0.05,10.27c-2.14,0-4.08,0-6.14,0c0-10.93,0-21.82,0-32.91c0.84-0.33,1.87-0.09,2.86-0.13
		c1.02-0.04,2.05-0.01,2.98-0.01c0.38,0.4,0.66,0.7,0.94,0.99c-0.08,0.94-1.29,1.72-0.33,2.76c0.29-0.04,0.58,0.08,0.85-0.21
		c3.11-3.3,7.13-4.01,11.31-3.44c1.93,0.26,4.13,0.95,5.41,2.59c1.23,1.59,1.76,3.56,2.22,5.64c0.9,4.1,0.32,8.17,0.48,12.25
		C390.99,337.89,390.87,342.04,390.87,346.23z"/>
	<path class="st3" d="M114.76,364.41c2.59,1.91,4.61,4.42,6.92,6.62c1.58,1.5,3.09,3.08,4.63,4.62c0.53,0,1.05,0,1.57,0
		c0.32,0.27,0.63,0.61,0.64,1.01c0.13,5.7,1.58,11.36,0.61,17.1c-1.01,3.97-1.93,7.95-3.12,11.87c-0.18,0.1-0.35,0.23-0.54,0.3
		c-2.05,0.76-13.66,0.07-15.7-0.93c0.29-1.34,0.48-2.72,0.74-4.04c0.27-1.37,0.5-2.7,0.51-4.08c1.38-1.76,3.97-1.05,5.55-2.75
		c-0.01-3.82-0.23-7.7-0.93-11.7c-1.51,0.42-2.89,2-4.62,0.7c0.51-5.48,0.69-10.99,1.87-16.39
		C113.31,365.81,114.5,365.48,114.76,364.41z"/>
	<path class="st2" d="M421.17,400.64c0.19-0.19,0.31-0.41,0.49-0.47c2.19-0.8,2.96-2.46,2.96-4.66c-0.02-6.95-0.01-13.91-0.01-20.99
		c2.29,0,4.52,0,6.87,0c0,7.01,0.14,13.96-0.07,20.91c-0.08,2.69-1.03,5.34-2.65,7.6c-1.7,2.38-4.27,3.57-6.91,4.36
		c-4.89,1.46-11.38-1.57-13.85-6.16c-0.27-0.51-0.17-1.25-0.83-1.51c-1.34-8.31-0.29-16.68-0.76-25.14
		c1.15-0.38,2.28-0.13,3.38-0.18c1.13-0.05,2.26-0.01,3.59-0.01c0,3.93,0,7.74,0,11.56c0,3.12-0.08,6.24,0.03,9.35
		c0.07,2.14,0.64,4.08,2.99,4.98c0.49,0.19,0.92,0.34,1.42,0.34C418.93,400.65,420.07,400.64,421.17,400.64z"/>
	<path class="st0" d="M458.96,375.75c0,2.3,0,4.38,0,6.69c-2.22,0-4.46,0-6.8,0c0,8.41,0,16.61,0,24.94c-2.25,0-4.4,0-6.75,0
		c-0.12-0.12-0.42-0.4-0.82-0.78c0-7.89,0-15.88,0-23.97c-1.43,0-2.75,0-3.97,0c-0.4-0.4-0.7-0.7-0.94-0.94c0-2,0-3.95,0-6
		c1.62,0,3.15,0,4.8,0c0-3.72,0-7.33,0-11.07c2.32-1.34,4.51-2.83,7.57-2.68c0,4.55,0,9.08,0,13.82
		C454.5,375.75,456.74,375.75,458.96,375.75z"/>
	<path class="st2" d="M404.19,441.98c0.55-0.55,0.77-0.77,1.1-1.1c0-3.5,0-7.12,0-10.88c2.18-0.88,4.32-1.74,6.81-2.74
		c0.01,4.96,0,9.69,0.01,14.53c2.27,0,4.43,0,6.73,0c0,2.12,0,4.15,0,6.28c-2.16,0-4.32,0-6.6,0c0,8.29,0,16.48,0,24.67
		c-0.39,0.32-0.71,0.58-1.14,0.93c-1.77,0-3.72,0-5.77,0c0-8.25,0-16.44,0-24.53c-0.4-0.4-0.69-0.69-1.1-1.1c-1.42,0-2.96,0-4.55,0
		c0-2.06,0-4,0-6.06C401.23,441.98,402.77,441.98,404.19,441.98z"/>
	<path class="st2" d="M337.96,442.21c-0.85,2.26-1.52,4.37-2.65,6.31c-1.67-0.22-3.06-1.25-4.75-1.05
		c-1.76,0.21-3.56,0.56-5.01,1.43c-1.42,0.86-2.74,2.19-3.33,3.86c-0.9,2.58-0.93,5.19-0.11,7.88c0.85,2.8,2.65,4.5,5.9,5.57
		c2.45-0.13,5.63,0.59,8.59-1.39c1.95,1.38,1.76,4.15,3.68,5.44c-1.31,1.44-3.21,1.65-4.82,2.83c-1.44-0.49-2.86,0.57-4.46,0.66
		c-1.55,0.09-2.9-0.65-4.41-0.78c-1.44-0.12-2.96-0.97-4.14-1.89c-1.18-0.92-2.9-1.39-3.48-2.83c-0.62-1.55-2.09-2.33-2.75-3.85
		c-2.98-6.93-1.6-13.31,2.11-17.78C323.6,440.32,331.18,439.2,337.96,442.21z"/>
	<path class="st3" d="M109.77,437.5c-2.42,3.35-4.78,6.75-7.28,10.04c-1.03,1.35-2.24,2.57-3.34,3.88
		c-1.37,1.63-3.46,2.53-5.59,2.88c-0.74,0.12-1.24,0.58-1.91,0.69c0.07-0.4-0.17-0.61-0.5-0.61c-1.25-0.03-2.52,0.15-3.74-0.05
		c-2.23-0.35-4.52-0.44-6.67-1.21c-0.32-0.59-0.64-1.18-0.97-1.79c0.49-1.03,0.81-2.21,1.51-3.09c1.8-2.28,3.23-4.87,5.48-6.8
		c2.43-2.07,3.91-5.02,6.42-7c0.48-0.38-0.01-1.37,0.96-1.31C99.59,433.74,104.68,435.6,109.77,437.5z"/>
	<path class="st3" d="M181.6,363.16c1.73,0.16,3.15-0.85,4.72-1.27c3.14-0.84,6.07-2.21,8.98-3.67c0.85-0.43,1.26-1.76,2.54-1.31
		c2.11,1.62,3.94,3.44,5.03,5.95c1.39,3.2,2.99,6.32,3.16,9.84c-1.65,1.96-4,2.66-6.1,3.46c-2.04,0.77-4.03,1.81-6.27,2.17
		c-1.98,0.33-3.88,1.11-5.82,1.69c-0.48-0.21-0.93-0.5-1.14-0.98c-2.1-4.81-3.81-9.76-5.43-14.74
		C181.14,363.9,181.35,363.5,181.6,363.16z"/>
	<path class="st3" d="M136,372.53c2.13-0.57,4.26-1.14,6.4-1.71c0.28-0.07,0.58-0.19,0.86-0.15c3.66,0.45,7.22-0.81,10.86-0.64
		c0.66,0.73,0.89,1.62,0.93,2.57c0.17,4.53-0.14,9.08,0.53,13.6c0.14,0.94-0.18,1.84-0.83,2.58c-0.7,0.33-1.38,0.56-2.18,0.69
		c-2.44,0.4-4.87,0.9-7.19,1.81c-1.93-0.3-3.67,1.1-5.62,0.62c-0.87-0.71-1.05-1.76-1.25-2.76c-0.87-4.36-1.78-8.7-2.74-13.04
		C135.5,374.91,135.08,373.66,136,372.53z"/>
	<path class="st1" d="M366.61,427.56c2.05,0,3.99,0,6.04,0c0,15.31,0,30.58,0,46.03c-0.84,0.34-1.87,0.1-2.87,0.13
		c-1.02,0.04-2.05,0.01-3.18,0.01C366.61,458.36,366.61,443.1,366.61,427.56z"/>
	<path class="st0" d="M473.23,407.46c-2.26,0-4.42,0-6.67,0c0-10.94,0-21.83,0-32.93c0.95-0.32,2.09-0.06,3.18-0.11
		c1.13-0.05,2.26-0.01,3.49-0.01C473.23,385.41,473.23,396.3,473.23,407.46z"/>
	<path class="st4" d="M388.9,473.67c-2.05,0-3.99,0-5.89,0c-0.27-0.27-0.49-0.49-0.79-0.79c0-10.59,0-21.27,0-32.17
		c1-0.03,2.11-0.07,3.21-0.09c1.13-0.02,2.25,0,3.48,0C388.9,451.62,388.9,462.51,388.9,473.67z"/>
	<path class="st2" d="M356.4,472.9c-0.27,0.27-0.49,0.49-0.77,0.77c-1.68,0-3.41,0-5.07,0c-0.93-0.53-0.94-1.32-0.94-2.18
		c0.03-4.15,0.01-8.31,0.01-12.46c0-6.02,0-12.04,0-18.24c1.04-0.39,2.18-0.11,3.27-0.16c1.13-0.06,2.26-0.01,3.5-0.01
		C356.4,451.46,356.4,462.21,356.4,472.9z"/>
	<path class="st5" d="M122.26,415.01c0.32,1.07-0.3,2.02-0.71,2.81c-1.29,2.47-2.51,4.96-3.71,7.47c-0.6,1.25-1.32,2.53-2.45,3.46
		c-3.27,0.89-6.22-0.68-9.26-1.34c-2-0.43-4.41-0.24-5.73-2.41c-0.1-1.06,0.53-1.86,1.09-2.62c1.14-1.55,2.13-3.19,3.01-4.9
		c0.66-1.27,1.42-2.48,2.14-3.72c2.91-1.12,5.89-0.33,8.79-0.09C117.7,413.85,120.21,413.48,122.26,415.01z"/>
	<path class="st3" d="M161.61,368.78c-0.07-0.39,0.18-0.63,0.49-0.61c2.62,0.16,4.94-1.17,7.48-1.46c1.32-0.16,2.6-0.69,3.9-1.05
		c2.13,5.64,4.04,11.33,3.75,17.49c-3.75,1.05-7.56,1.9-11.27,3.11c-0.37,0.12-0.81,0.02-1.22,0.02c-1.71-3.19-1.41-6.79-1.93-10.2
		C162.44,373.64,162.17,371.19,161.61,368.78z"/>
	<path class="st6" d="M161.61,368.78c0.31,0,0.62,0,1.19,0c-0.36,1.52,0.73,2.75,0.71,4.29c-0.02,1.48-0.17,2.94,0.5,4.46
		c0.54,1.23-0.3,2.93,0.33,4.22c0.74,1.53,0.15,3.03,0.39,4.52c-0.89,0.95-2.2,0.7-3.26,0.96c-2.23,0.55-4.4,1.45-6.73,1.54
		c0.34-3.17-0.9-6.21-0.67-9.4c0.22-3.1,0.05-6.23,0.05-9.34c1.28-0.01,2.36-0.91,3.76-0.67
		C159.12,369.58,160.26,368.35,161.61,368.78z"/>
	<path class="st6" d="M177.23,383.15c-0.42-2.01-0.74-4.05-1.27-6.03c-0.53-2-0.98-3.98-1.33-6.03c-0.31-1.8-1.17-3.52-1.14-5.43
		c2.76-0.67,5.5-1.37,8.12-2.5c0.72,2.07,1.31,4.2,2.19,6.19c0.7,1.59,1.32,3.17,1.68,4.86c0.37,1.69,1.75,3,1.77,4.83
		c0,0.35,0.69,0.46,0.6,0.98c-1.57,0.97-3.45,0.99-5.15,1.56C180.93,382.18,179.11,382.84,177.23,383.15z"/>
	<path class="st6" d="M100.4,425.01c1.12,0.93,2.59,0.79,3.88,1.17c3,0.88,6.11,1.35,9.19,1.94c0.68,0.13,1.11,0.96,1.92,0.64
		c-1.55,3.12-3.82,5.78-5.62,8.75c-0.82,0-1.65,0.03-2.47-0.01c-0.68-0.03-1.22-0.5-1.88-0.69c-3.59-1.02-7.11-2.28-10.78-3.05
		c-0.32-0.07-0.56-0.23-0.49-0.62c1.26-2.33,3.13-4.24,4.44-6.55C98.95,425.94,99.49,425.18,100.4,425.01z"/>
	<path class="st6" d="M122.26,415.01c-4.28,0.27-8.48-1.06-12.77-0.64c-0.99,0.1-1.78-0.94-2.84-0.61c0.22-2.21,1.53-4.04,2.16-6.11
		c0.26-0.86,0.2-1.93,0.97-2.63c2.39,0,4.78,0.11,7.16-0.03c3.07-0.18,6.01,1.1,9.08,0.65c-0.89,3.02-2.54,5.76-3.13,8.89
		C122.82,414.85,122.65,415.08,122.26,415.01z"/>
	<path class="st6" d="M111.02,383.15c0.59-0.11,1.28,0.29,1.77-0.23c0.99-1.07,2.56-0.74,3.64-1.57c0.9,4.64,0.58,9.39,1.58,14.26
		c-2.54-0.24-4.58,1.33-6.98,1.28c-0.66,0.09-1.08,0.93-1.87,0.62c-0.8-0.31-1.21,0.53-1.87,0.62c-0.84-0.98-0.7-2.13-0.47-3.25
		c0.7-3.52,0.42-7.25,2.35-10.49C109.61,383.76,110.82,384.21,111.02,383.15z"/>
	<path class="st3" d="M109.14,384.4c-0.03,1.28,0.09,2.53-0.57,3.79c-0.52,1,0.52,2.45-0.68,3.42c0.41,2.24-0.73,4.33-0.62,6.54
		c-1.64-0.39-2.96,0.66-4.07,1.42c-1.31,0.89-2.71,1.54-4.05,2.33c-0.58-0.51-0.85-1.21-0.84-1.93c0.06-3.99-0.06-8.01,1.47-11.81
		C102.8,386.66,105.85,385.23,109.14,384.4z"/>
	<path class="st6" d="M99.77,388.15c0,1.97,0.42,4.06-0.1,5.88c-0.75,2.65-0.33,5.25-0.52,7.86c-0.22,1.33-1.56,1.48-2.39,1.95
		c-1.47,0.83-2.68,2.21-4.49,2.43c-1.31-2.7-1.71-11.42-0.62-13.74c0.07-0.17,0.09-0.44,0.22-0.51
		C94.4,390.51,96.9,388.95,99.77,388.15z"/>
	<path class="st5" d="M91.65,392.52c-0.04,4.59,1.07,9.13,0.62,13.74c-0.7,0.41-4.46,1.87-4.94,1.87c-1.45,0.01-2.9-0.02-4.34,0.02
		c-0.65,0.02-0.79-0.59-1.28-0.8c0-0.92,0-1.83,0-2.78c1.09-1.48,2.09-3.08,3.34-4.46c1.28-1.41,2.47-2.86,3.21-4.58
		c0.56-1.29,1.58-2.06,2.48-2.99C90.89,392.39,91.34,392.52,91.65,392.52z"/>
	<path class="st4" d="M349.75,427.56c2.25,0,4.4,0,6.66,0c0,2.4,0,4.75,0,7.32c-0.94,0.32-2.07,0.06-3.17,0.11
		c-1.13,0.05-2.26,0.01-3.49,0.01C349.75,432.55,349.75,430.19,349.75,427.56z"/>
	<path class="st7" d="M388.89,434.95c-2.26,0-4.41,0-6.66,0c0-2.4,0-4.76,0-7.36c0.98-0.03,2.08-0.07,3.18-0.09
		c1.13-0.02,2.26,0,3.49,0C388.89,429.96,388.89,432.32,388.89,434.95z"/>
	<path class="st8" d="M473.28,361.39c0,2.46,0,4.81,0,7.28c-2.26,0-4.48,0-6.76,0c0-2.22,0-4.37,0-6.51
		c0.23-0.23,0.45-0.45,0.77-0.77C469.12,361.39,471.06,361.39,473.28,361.39z"/>
	<path class="st6" d="M136,372.53c0.33,2.53,0.76,5.07,1.62,7.45c0.4,1.09-0.25,2.23,0.57,3.2c0.72,0.85-0.14,2.13,0.5,2.89
		c0.81,0.98-0.04,2.21,0.5,2.91c0.77,0.98,0.43,1.95,0.56,2.92c-0.07,0.17-0.16,0.5-0.21,0.5c-2.09-0.2-4.05,0.63-6.09,0.85
		c-1.43,0.15-2.84,0.61-4.32,0.53c-0.39,0.07-0.64-0.18-0.61-0.48c0.41-4.47-0.71-8.86-0.64-13.31c0.02-1.44,0-2.88,0-4.32
		C130.48,374.33,133.27,373.51,136,372.53z"/>
	<path class="st9" d="M137.88,343.25c-0.43-5.4,5.48-10.85,10.31-10.72c5.91,0.15,11,5.02,10.9,11.04
		c-0.05,3.09-1.32,5.72-3.55,7.88c-2.1,2.04-4.84,3.08-7.5,2.85C142.88,353.85,137.51,349.83,137.88,343.25z"/>
	<path class="st9" d="M244.6,338.18c-1.31-0.7-2.41-1.31-3.54-1.87c-3.85-1.92-5.85-4.92-7.08-9.25c-0.58-2.05-0.69-4.06-0.44-6
		c0.31-2.37,1.25-4.68,2.75-6.63c2.21-2.87,5.95-5.48,9.3-6.12c1.8-0.35,3.87-0.54,5.53,0.02c1.35,0.46,2.92,0.25,4.14,1.31
		c1.25,1.09,2.96,1.72,4.04,2.94c2.29,2.59,4.12,5.51,4.14,9.18c0.01,0.94-0.07,1.88,0.01,2.81c0.27,3.18-1.13,5.81-3.01,8.1
		c-1.97,2.39-4.35,4.33-7.51,5.18c-0.7,0.19-1.36,0.3-2.04,0.31C248.71,338.2,246.53,338.18,244.6,338.18z"/>
	<path class="st9" d="M534.9,400.49c-3.43,0.66-6.37,0.05-8.6-2.23c-1.95-1.99-3.16-4.68-2.92-7.43c0.42-4.8,3.09-10.66,11.51-9.5
		c2.6,1.6,4.75,3.61,5.87,7.24C541.59,393.36,540.12,397.84,534.9,400.49z"/>
	<path class="st9" d="M294.58,339.42c-2.88-1.38-5.03-3.31-6.12-6.14c-0.68-1.76-1.13-3.71-0.47-5.56c1.86-5.27,4.2-8.22,11.83-7.66
		c0.76,0.63,1.66,1.2,2.47,1.55c2.76,1.21,3.16,3.85,4.04,6.12c0.79,2.02,0.02,4.08-0.7,6.07c-0.85,2.36-2.52,3.9-4.68,5
		c-0.7,0.35-1.34,0.75-2.23,0.66C297.28,339.33,295.82,339.42,294.58,339.42z"/>
	<path class="st9" d="M377.99,381.97c6.64-1.75,10.02-0.61,13.42,5.75c0.57,5.68-0.4,10.53-7,12.93c-6.09,0.87-9.18-2.51-10.7-6.27
		C372.18,390.63,372.84,386.38,377.99,381.97z"/>
	<path class="st9" d="M278.43,454.68c0.75-0.45,0.84-1.33,1.21-2c1.79-3.27,4.87-4.39,8.18-5.16c0.72-0.17,3.88,0.78,4.78,1.23
		c3.86,1.94,5.73,5.12,5.82,9.39c0.05,2.34-1.05,4.36-2.24,6.22c-1.1,1.71-3.09,2.32-4.88,3.18c-2.31,1.12-4.64,0.65-6.63-0.16
		c-2.99-1.2-5.16-3.61-6.21-6.79c-0.18-0.56-0.03-1.24-0.03-1.86C278.43,457.37,278.43,456.02,278.43,454.68z"/>
	<path class="st9" d="M329.11,326.2c0.78-1.75,1-3.68,2.66-4.83c1.44-1,3-1.64,4.63-2.3c2.11-0.86,3.65,0.93,5.39,0.33
		c1.2,1.2,2.3,2.3,3.4,3.4c-0.27,1.19,1.19,2.11,0.59,3.41C340.19,326.2,334.66,326.2,329.11,326.2z"/>
	<path class="st9" d="M275.93,388.47c4.05-6.86,6.31-7.59,12.51-7.19c2.2,0.98,3.89,2.17,5.33,3.75c2.59,2.85,2.98,8.27,0.55,11.22
		c-0.96,1.17-2.01,2.33-3.35,3.14c-3.83,2.31-9.12,1.67-12.13-1.27c-1.65-1.61-2.83-3.75-2.9-6.25
		C275.9,390.74,275.93,389.59,275.93,388.47z"/>
	<path class="st10" d="M142.19,341.8c1-2.57,1-2.57,3.56-3.67c1.35,0.28,2.41,1.14,3.36,2.26c0,0.77,0,1.6,0,2.5
		c-0.7,0.66-1.45,1.37-2.28,2.15C144.37,345.32,142.93,344.02,142.19,341.8z"/>
</g>
</svg>
