<svg xmlns="http://www.w3.org/2000/svg" viewBox="0 0 789.51 376.99"><defs><style>.cls-1{fill:#231f20}.cls-2{fill:#0f4e91}.cls-3{fill:#fff}.cls-4{fill:#fdd700}</style></defs><g><g><path class="cls-1" d="M310.61 45.29a35.88 35.88 0 0 1 14.32 2.87 36.84 36.84 0 0 1 19.57 19.57 37.1 37.1 0 0 1 0 28.63 36.85 36.85 0 0 1-19.57 19.57 37.1 37.1 0 0 1-28.63 0 37 37 0 0 1-11.69-7.88 37.67 37.67 0 0 1-7.93-11.69 36.52 36.52 0 0 1 0-28.63A37.71 37.71 0 0 1 284.61 56a37 37 0 0 1 11.69-7.88 35.88 35.88 0 0 1 14.31-2.83Zm0 61.42a24 24 0 0 0 9.56-1.93 25.3 25.3 0 0 0 7.88-5.25A24.42 24.42 0 0 0 335.28 82a23.92 23.92 0 0 0-1.93-9.61 24.87 24.87 0 0 0-13.18-13.13 24.86 24.86 0 0 0-19.22 0 24.87 24.87 0 0 0-13.18 13.13 23.9 23.9 0 0 0-1.92 9.61 24.42 24.42 0 0 0 7.23 17.49 25.26 25.26 0 0 0 7.88 5.25 24.27 24.27 0 0 0 9.65 1.98ZM390 66.2a24.24 24.24 0 0 1 10 2.08 25.89 25.89 0 0 1 13.57 14 27.52 27.52 0 0 1 0 20.51 25.9 25.9 0 0 1-13.57 14 24.25 24.25 0 0 1-10 2.08 23.89 23.89 0 0 1-9-1.68 25.86 25.86 0 0 1-7.58-4.66v27.97h-10.8V66.1h10.8v6.34a27.1 27.1 0 0 1 7.58-4.56 23.93 23.93 0 0 1 9-1.68Zm-1.49 41.71a13.83 13.83 0 0 0 5.8-1.24 15.42 15.42 0 0 0 8-8.22 15.28 15.28 0 0 0 1.19-6 15.65 15.65 0 0 0-4.41-11 14.91 14.91 0 0 0-4.75-3.27 14.34 14.34 0 0 0-5.8-1.19 14.56 14.56 0 0 0-5.89 1.19 14.87 14.87 0 0 0-4.76 3.27 15.65 15.65 0 0 0-4.41 11 15.28 15.28 0 0 0 1.19 6 15.42 15.42 0 0 0 8 8.22 14 14 0 0 0 5.81 1.24ZM454.36 66a24.15 24.15 0 0 1 9.41 1.63 21 21 0 0 1 6.44 4.11 20.53 20.53 0 0 1 4.11 5.5 30.05 30.05 0 0 1 2.28 5.8 26.37 26.37 0 0 1 .89 4.9q.15 2.13.15 2.92V96h-38a9.29 9.29 0 0 0 .79 3.1 14.21 14.21 0 0 0 2.53 4 15.13 15.13 0 0 0 4.56 3.49 14.72 14.72 0 0 0 6.88 1.47 32.2 32.2 0 0 0 7.48-.79 41.76 41.76 0 0 0 5.79-1.78 26.82 26.82 0 0 0 5.15-2.58V114a8.27 8.27 0 0 1-2.92 1.8 30.58 30.58 0 0 1-4.9 1.55q-2.77.65-5.65 1.1a32.58 32.58 0 0 1-5 .45 30.08 30.08 0 0 1-3.42-.3 24.66 24.66 0 0 1-5.2-1.34 30.09 30.09 0 0 1-5.84-2.92 22.44 22.44 0 0 1-5.45-5 25.32 25.32 0 0 1-4.06-7.58A32.81 32.81 0 0 1 428.8 91a24.19 24.19 0 0 1 1.73-8.82 25.38 25.38 0 0 1 5-8 26 26 0 0 1 8-5.84A24.7 24.7 0 0 1 454.36 66Zm12.48 21.2a15.37 15.37 0 0 0-1.84-5.95 14.11 14.11 0 0 0-3.71-4.16 10.85 10.85 0 0 0-6.79-1.88 16.12 16.12 0 0 0-7.23 1.44 14.62 14.62 0 0 0-4.6 3.35 11.94 11.94 0 0 0-2.38 4 10.68 10.68 0 0 0-.69 3.22ZM495 118.9V66.1h10.8l-.1 7.33a15 15 0 0 1 3.47-3.67 21 21 0 0 1 4.8-2.53 20.54 20.54 0 0 1 7.38-1.14 19.26 19.26 0 0 1 8.87 1.73 12.36 12.36 0 0 1 5.05 4.66 18 18 0 0 1 2.28 6.64 53 53 0 0 1 .54 7.68v32.1h-10.8V86.11a8.43 8.43 0 0 0-2.07-5.55 7.4 7.4 0 0 0-6-2.48 16.19 16.19 0 0 0-5.08.79 12.2 12.2 0 0 0-4.24 2.38 12 12 0 0 0-3 4 12.77 12.77 0 0 0-1.13 5.55v28.1Z"/><path class="cls-2" d="M334.08 210.24a55.15 55.15 0 0 1-8.57 4.26 30.61 30.61 0 0 1-7.88 1.78 34.5 34.5 0 0 1-15.55-1.73 38.06 38.06 0 0 1-12.9-7.68 37.33 37.33 0 0 1-8.82-12 34.9 34.9 0 0 1-3.25-14.91 37.09 37.09 0 0 1 2.95-14.66 36.57 36.57 0 0 1 8.27-12.09 36.09 36.09 0 0 1 12.61-7.88 38.18 38.18 0 0 1 16.1-2.13 28.4 28.4 0 0 1 6.59 1.14 36.21 36.21 0 0 1 5.7 2.23l-4.76 9.51a24 24 0 0 0-5.55-1.88 30.33 30.33 0 0 0-5.15-.4 23.63 23.63 0 0 0-9.87 2.1 27.69 27.69 0 0 0-14 14 23.85 23.85 0 0 0 0 19.81 28.05 28.05 0 0 0 5.8 8.27 28.62 28.62 0 0 0 8.27 5.7 23.05 23.05 0 0 0 9.71 2.13q1.88 0 3.52-.15a18.81 18.81 0 0 0 3.27-.59 22 22 0 0 0 3.43-1.27 42.5 42.5 0 0 0 3.91-2.08ZM370.34 163.68a25.54 25.54 0 0 1 10.25 2.08 26.33 26.33 0 0 1 14 14.07 25.89 25.89 0 0 1 2.08 10.3 25.53 25.53 0 0 1-2.08 10.25 26.48 26.48 0 0 1-14 14 26.31 26.31 0 0 1-20.51 0 27.34 27.34 0 0 1-8.42-5.65 26.26 26.26 0 0 1-5.7-8.37 25.51 25.51 0 0 1-2.08-10.25 25.87 25.87 0 0 1 2.08-10.3 26.16 26.16 0 0 1 5.7-8.42 27.33 27.33 0 0 1 8.42-5.65 25.53 25.53 0 0 1 10.26-2.06Zm0 42.5a16 16 0 0 0 11.39-4.66 16.61 16.61 0 0 0 3.47-5.1 16 16 0 0 0 0-12.58 16.47 16.47 0 0 0-8.57-8.57 16 16 0 0 0-12.58 0 16.47 16.47 0 0 0-8.57 8.57 16 16 0 0 0 0 12.58 16.56 16.56 0 0 0 3.47 5.1 16 16 0 0 0 11.39 4.66ZM408.58 216.49v-52.8h10.8V171a15 15 0 0 1 3.46-3.67 20.91 20.91 0 0 1 4.8-2.53 20.49 20.49 0 0 1 7.37-1.14 17.19 17.19 0 0 1 7.17 1.34 18 18 0 0 1 4.7 3 12.2 12.2 0 0 1 2.57 3.12 6.88 6.88 0 0 1 .79 1.78c0 .2.26-.16.79-1.09a13.9 13.9 0 0 1 2.77-3.17 22.53 22.53 0 0 1 5.24-3.37 19.07 19.07 0 0 1 8.31-1.58 16.77 16.77 0 0 1 13.7 6 16.06 16.06 0 0 1 2.87 5 13 13 0 0 1 .84 3.86v37.95H474v-33a5.41 5.41 0 0 0-.85-2.72 9.41 9.41 0 0 0-2.19-2.53 12.85 12.85 0 0 0-3.09-1.83 9.14 9.14 0 0 0-3.63-.74 12.8 12.8 0 0 0-9 3.17q-3.48 3.17-3.48 9.51v28.14H441v-32.81a8.41 8.41 0 0 0-2.08-5.55 7.46 7.46 0 0 0-6-2.48 16.36 16.36 0 0 0-5.1.79 12.8 12.8 0 0 0-4.31 2.38 11.21 11.21 0 0 0-3 4 13.18 13.18 0 0 0-1.09 5.55v28.14ZM526.08 163.78a24.23 24.23 0 0 1 10 2.08 25.89 25.89 0 0 1 13.57 14 27.52 27.52 0 0 1 0 20.51 25.91 25.91 0 0 1-13.57 14 24.26 24.26 0 0 1-10 2.08 23.87 23.87 0 0 1-9-1.69 25.84 25.84 0 0 1-7.58-4.66v27.94h-10.8v-74.4h10.8V170a27.12 27.12 0 0 1 7.58-4.56 23.91 23.91 0 0 1 9-1.66Zm-1.49 41.71a13.81 13.81 0 0 0 5.79-1.24 15.42 15.42 0 0 0 8-8.22 15.28 15.28 0 0 0 1.19-6 15.65 15.65 0 0 0-4.41-11 14.92 14.92 0 0 0-4.76-3.27 14.33 14.33 0 0 0-5.79-1.19 14.57 14.57 0 0 0-5.9 1.19 14.89 14.89 0 0 0-4.75 3.27 15.65 15.65 0 0 0-4.41 11 15.28 15.28 0 0 0 1.19 6 15.42 15.42 0 0 0 8 8.22 14 14 0 0 0 5.85 1.24ZM563.53 163.68h10.8v34.48a10.31 10.31 0 0 0 .25 1.83 6.8 6.8 0 0 0 1.14 2.53 7.31 7.31 0 0 0 2.67 2.23 12.61 12.61 0 0 0 9.56 0 7.42 7.42 0 0 0 2.63-2.23 6.89 6.89 0 0 0 1.14-2.48 9.73 9.73 0 0 0 .25-1.79v-34.57h10.8v34.48q0 .4-.2 1.93a18.72 18.72 0 0 1-.89 3.57 22.46 22.46 0 0 1-2 4.26 17.91 17.91 0 0 1-3.52 4.16 17.69 17.69 0 0 1-5.35 3.17 21 21 0 0 1-7.63 1.24 22.18 22.18 0 0 1-7.68-1.19 18.63 18.63 0 0 1-5.4-3 14.91 14.91 0 0 1-3.47-4 22.17 22.17 0 0 1-2-4.26 19.36 19.36 0 0 1-.89-3.67 20.69 20.69 0 0 1-.2-2.28ZM647.74 176.06h-11.79v40.42H625v-40.42h-8.32v-10.8H625v-18.42l11-3.87v22.29h11.79ZM670.42 154.86h-10.8V143h10.8Zm-10.8 8.82h10.8v52.8h-10.8ZM684.29 216.49v-52.8h10.8L695 171a15 15 0 0 1 3.47-3.67 20.92 20.92 0 0 1 4.8-2.53 20.54 20.54 0 0 1 7.38-1.14 19.26 19.26 0 0 1 8.87 1.73 12.36 12.36 0 0 1 5.05 4.66 18 18 0 0 1 2.28 6.64 53 53 0 0 1 .54 7.68v32.1h-10.8v-32.78a8.43 8.43 0 0 0-2.07-5.55 7.41 7.41 0 0 0-6-2.48 16.22 16.22 0 0 0-5.08.79 12.22 12.22 0 0 0-4.24 2.38 12 12 0 0 0-3 4 12.77 12.77 0 0 0-1.13 5.55v28.14ZM789.51 166.65v49.93a28.41 28.41 0 0 1-1 7.23 16.54 16.54 0 0 1-3.86 6.94 21.48 21.48 0 0 1-8 5.25q-5.15 2.08-13.57 2.08a56.3 56.3 0 0 1-9.41-.64 39.25 39.25 0 0 1-5.97-1.44 15.38 15.38 0 0 1-4.06-2.18v-10.7a29.74 29.74 0 0 0 5 2 43.58 43.58 0 0 0 6.09 1.39 52.12 52.12 0 0 0 8.37.59 25.48 25.48 0 0 0 7.78-1 14 14 0 0 0 4.8-2.53 7.87 7.87 0 0 0 2.43-3.47 12 12 0 0 0 .64-3.81v-6a25.44 25.44 0 0 1-7.08 4.56 20.91 20.91 0 0 1-8.37 1.69 21.34 21.34 0 0 1-9.31-2.08 24.67 24.67 0 0 1-7.63-5.65 26.57 26.57 0 0 1-5.15-8.37 27.84 27.84 0 0 1-1.88-10.25 28.23 28.23 0 0 1 1.88-10.3 26.48 26.48 0 0 1 5.15-8.42 24.67 24.67 0 0 1 7.63-5.65 21.34 21.34 0 0 1 9.31-2.08 20.94 20.94 0 0 1 8.37 1.68 24.43 24.43 0 0 1 7.08 4.66v-3.37Zm-24.87 38.84a12.75 12.75 0 0 0 5.3-1.14 14.09 14.09 0 0 0 4.46-3.17 15.67 15.67 0 0 0 3.07-4.71 15.85 15.85 0 0 0 1.24-5.75v-1.48a15.86 15.86 0 0 0-1.24-5.75 15.67 15.67 0 0 0-3.07-4.71 14.12 14.12 0 0 0-4.46-3.17 12.78 12.78 0 0 0-5.3-1.14 12.4 12.4 0 0 0-5.45 1.24 14.91 14.91 0 0 0-4.51 3.32 15.1 15.1 0 0 0-3 4.9 16.48 16.48 0 0 0-1.09 6 16.75 16.75 0 0 0 1.09 6.09 15.1 15.1 0 0 0 3 4.9 14.88 14.88 0 0 0 4.51 3.32 12.38 12.38 0 0 0 5.45 1.25Z"/><path class="cls-1" d="M287.86 322.36v-73.51H333v10.2h-34.34v22.19h27.74v10.2h-27.74v30.91ZM401.29 272.53v49.83H390.5v-7.13a26.54 26.54 0 0 1-8.42 7.13 22.73 22.73 0 0 1-20.41.5 25.55 25.55 0 0 1-8-5.94 28.51 28.51 0 0 1-5.4-8.77 30.15 30.15 0 0 1 0-21.5 28.55 28.55 0 0 1 5.4-8.77 25.58 25.58 0 0 1 8-5.94 22.22 22.22 0 0 1 9.71-2.18 22.52 22.52 0 0 1 10.7 2.63 25.5 25.5 0 0 1 8.42 7.18v-7Zm-27 41.41a15.76 15.76 0 0 0 6.34-1.29 16 16 0 0 0 5.15-3.52 17.11 17.11 0 0 0 3.47-5.2 16.63 16.63 0 0 0 0-12.83 17 17 0 0 0-3.47-5.25 16 16 0 0 0-5.15-3.52 16.25 16.25 0 0 0-12.68 0 16.41 16.41 0 0 0-8.72 8.77 16.62 16.62 0 0 0 0 12.83 16.55 16.55 0 0 0 8.72 8.72 15.76 15.76 0 0 0 6.3 1.29ZM457.37 317.9a45.35 45.35 0 0 1-6.19 3 22 22 0 0 1-5.6 1.34 25.32 25.32 0 0 1-11.2-1.29 26.78 26.78 0 0 1-15.5-14.12 24.93 24.93 0 0 1-2.33-10.65 27.22 27.22 0 0 1 2.08-10.55 25.42 25.42 0 0 1 5.89-8.67 26.34 26.34 0 0 1 9.07-5.65 27.32 27.32 0 0 1 11.49-1.58 23.58 23.58 0 0 1 8.92 2.48l-4.26 10.3a26.51 26.51 0 0 0-3.62-1.29 14.78 14.78 0 0 0-3.32-.3q-7.43 0-11.24 3.76T427.74 296q0 7.53 4 11.34t11.1 3.81q1.39 0 2.43-.1a8.51 8.51 0 0 0 2-.45 21.08 21.08 0 0 0 2.13-.89q1.14-.54 2.72-1.44ZM483.42 260.74h-10.8v-11.89h10.8Zm-10.8 8.82h10.8v52.8h-10.8ZM498.68 322.36v-73.51h10.8v73.51ZM535.53 260.74h-10.8v-11.89h10.8Zm-10.8 8.82h10.8v52.8h-10.8ZM583.88 281.94h-11.79v40.42h-11v-40.42h-8.32v-10.8h8.32v-18.43l11-3.86v22.29h11.79ZM613.5 269.55l13.87 34 13.67-34h12.38L623.51 344h-12.59L621 319.19l-19.91-49.63Z"/><g><path class="cls-1" d="M235.36 163.26c2.6-1.3 21.58 52.27 12.22 90.76-6.76 27.56 3 48-12.62 62.35-4.42 4.16-18.22 6.11-18.22 6.11-37.45 5.2-51.08 2.27-74.22.19s-22.1-12.74-29.13-15.34c-8.58-3.38-13.78 8.06-36.15 1.56-31.73-9.36-12-18.46-8.06-22.62 38.41-50.32 40.37-129.55 40.37-129.55 32.77-3.9 112 14.09 125.8 6.55"/></g><path class="cls-1" d="M167.44 56.3c-25-2.6-47.59 12.74-52 16.12-26.78 23.14-30.69 73.59 0 94.66 0 0 4.42-6 39-9.36 34.85-3.38 53.83-11.44 63.71-15.34 14-5.2 6.76-3.9 23.14-17.42"/><path class="cls-1" d="M241.3 125c16.12-13.26-14.94 2.62-32-38.75 0 0-6.76-26.26-41.87-29.91"/><g><path class="cls-3" d="M169.19 113.19A16.9 16.9 0 1 1 152.29 96a17.09 17.09 0 0 1 16.9 17.16"/></g><g><path class="cls-1" d="M153.58 110.31a5.47 5.47 0 1 1-5.46-5.2 5.45 5.45 0 0 1 5.46 5.2"/></g><g><path class="cls-3" d="M148.6 187.55c-26.38 84.22 36.42 110.51 99.92 83.88 0 0 9.34-32.83 7-58.05-4.68-46.29-14.06-54.46-14.06-54.46-13 5.72-92.85 28.63-92.85 28.63"/></g><g><path class="cls-1" d="M235.36 164.28c2.6-1.3 21.58 52.27 12.22 90.76-6.76 27.56 3 48-12.62 62.35-4.42 4.16-18.22 6.11-18.22 6.11-37.45 5.2-51.08 2.27-74.22.19s-22.1-12.74-29.13-15.34c-8.58-3.38-13.78 8.06-36.15 1.56-31.73-9.36-12-18.46-8.06-22.62 47.33-48.89 51.49-93.36 51.49-93.36 32.77-3.9 100.9-22.1 114.68-29.65"/></g><g><path class="cls-3" d="M148.6 188.57c-26.38 84.22 36.42 110.51 99.92 83.88 0 0 9.34-32.83 7-58.05-4.68-46.29-14.06-54.46-14.06-54.46-13 5.72-92.85 28.63-92.85 28.63"/></g><path class="cls-1" d="M167.44 57.32c-25-2.6-47.59 12.74-52 16.12-26.78 23.14-30.69 73.59 0 94.66 0 0 4.42-6 39-9.36 34.85-3.38 53.83-11.44 63.71-15.34 14-5.2 6.76-3.9 23.14-17.42"/><path class="cls-1" d="M241.3 126c16.12-13.26-19.5 2.86-32-38.75 0 0-6.76-26.26-41.87-29.91"/><g><path class="cls-3" d="M169.19 114.21A16.9 16.9 0 1 1 152.29 97a17.09 17.09 0 0 1 16.9 17.16"/></g><g><path class="cls-1" d="M153.58 111.33a5.47 5.47 0 1 1-5.46-5.2 5.45 5.45 0 0 1 5.46 5.2"/></g><g><g><path class="cls-2" d="M99.75 148.89c-7.45 0-4.69 13.8-7.45 26.21-1.38 6.62 21.06 4.95 27.13-4.71 1.1-2.21-19.68-21.5-19.68-21.5"/></g><g><path class="cls-2" d="M92.36 195.86c0 18.21-5 29-16.55 47.18s-22.9 27.87-29.25 36.42c-6.07 8.54-4.69 10.76 3.86 11.54s16.5 3.23 24.23-5.88 27.37-35 34.54-52.62 9.66-26.76 11.86-38.35-33.66 1.66-33.66 1.66"/></g></g><path class="cls-2" d="M228.54 137.1c6.9-5.39 15.88 18.28 15.88 23s-25.65 11.64-39.67 15.74-63.6 17.25-84.08 19c-16.6 1.51-28.67 5.17-36.43 7.11a85.21 85.21 0 0 0-15.52 9.27c-13.8 10.13-31.91 9.7-19.19-4.53 12.5-14.23.65-9.05 19.19-18.32s38.46-14.25 43-19c0 0 20.27-10.86 37.65-11.62 6.68 1.29 67.55-11.6 79.19-20.65"/><path class="cls-4" d="m192.07 150.16 13.29-4.01 9.77 26.7-16.67 4.79-6.39-27.48zM161.15 156.79l14.08-2.39 3.47 28.47-16.49 4.06-1.06-30.14zM119.04 165.89l13.26-4.92 6.36 31.1-17.99 2.76-1.63-28.94zM89.73 179.35l11.52-4.44 1.85 22.48-16.67 3.99 3.3-22.03zM73.17 208.13l1.47-22.92-13.31 7 1.46 22.66s7.03-3.63 10.38-6.74ZM90.48 212.79l-5.31 14.12 25.37 1.96 5.8-15.35-25.86-.73zM74.65 244.83l-9.73 13.31 24.82 7.24 9.74-14.44-24.83-6.11z"/><path style="fill:none;stroke:#231f20;stroke-miterlimit:10;stroke-width:6px" d="M783.84 139.95V3H3v370.99h780.84V265.12"/></g></g></svg>