<svg id="Layer_1" data-name="Layer 1" xmlns="http://www.w3.org/2000/svg" viewBox="0 0 491.63 235.42"><title>temp</title><path d="M138.88,389.46a44.79,44.79,0,0,1,7.53-8.74c14.71-13.38,39.88-20.22,53.89-11.69,22.7,13.83,21.73,71.49-8,87.49-14.17,7.63-34.82,5.74-48-6C126.29,434.49,128.41,405.77,138.88,389.46Z" transform="translate(-55.48 -270.2)" fill="#fff"/><path d="M547,357.45V270.2H55.48v235.2c4.21.32,488.83.25,491.47-.07V435.78h-3.76v66c-11.27.51-481.33.29-483.91-.2V273.91H543.34v83.54Z" transform="translate(-55.48 -270.2)" fill="#030303"/><path d="M145.37,391.27c0,2.3-1.37,4.33-1.32,6.63-1,.69-.64,1.76-.49,2.57.19,1-.86,1.58-.7,2.57.33,2-.88,3.9-.65,6a51.94,51.94,0,0,1,0,6.24c0,3.21,1,6.21,1.66,9.29.4,1.75,1.3,3.25,1.76,4.9s2,2.91,2.29,4.68c2.32,2.51,4.18,5.45,7.24,7.27,3.24,1.94,6.43,4,10.09,5,2.74.78,5.44,1.89,8.37,1.64,1.35-.11,2.4.93,3.81.69a12.17,12.17,0,0,1,4,0c1.6.27,2.9-.75,4.43-.71a21.8,21.8,0,0,0,4.45-.44c2.13-.39,4.22-.94,6.34-1.33a67.82,67.82,0,0,0,7.22-2.23,15.5,15.5,0,0,0,2.59-.53c-.19,2.69.36,5.1-.46,7.67-.6,1.89,0,4.13-.13,6.21a19.35,19.35,0,0,1-5.23,12.51,10.84,10.84,0,0,1-5.91,3.05c-2.69.58-5.36,1.55-8.2,1.38-1.29-.08-2.4.85-3.81.67-1.13-.14-2.46-.5-3.49.55-.1.1-.4,0-.61,0-5.55-.24-11.07,1.3-16.59.55-3.16-.43-6.33-.2-9.42-.66-2.12-.32-4.25-.21-6.3-.6a13.49,13.49,0,0,0-4.44-.5c-1.59.24-2.94-.58-4.42-.78a14,14,0,0,1-6.62-2.78c-1.31-1-2.7-1.84-3.58-3.44a5.76,5.76,0,0,0-3.47-2.88,11,11,0,0,0-7.07,1.36c-.9.5-1.74.3-2.59.53a21.21,21.21,0,0,1-9.38.15,53.93,53.93,0,0,1-6.62-2.07,16.2,16.2,0,0,1-7.74-4.77c-.5-1.77.37-3.24,1.18-4.72a1.66,1.66,0,0,1,1-1.08c4.78-1,7.44-4.66,10.12-8.24,2.12-2.82,4.33-5.58,6.27-8.54s4-5.81,5.84-8.77a71,71,0,0,0,6.84-13.53c1.09-3.26,2.49-6.4,3.43-9.71,1-2.75,1.61-5.59,2.33-8.4a5.45,5.45,0,0,1,1.63-3.28c3.42-1.27,7.09-1.35,10.6-2.17C141.64,391.19,143.51,389.92,145.37,391.27Z" transform="translate(-55.48 -270.2)" fill="#010101"/><path d="M114.76,364.41c-.73-2.5-1.47-5-2.21-7.51,0-.18-.29-.35-.27-.5.32-3.18-1.17-6.25-.6-9.41a16.2,16.2,0,0,0,.59-4.43c-.14-1.52.62-2.87.89-4.31a29.11,29.11,0,0,1,1.11-4.22c.48-1.36,1.14-2.65,1.75-4a31.06,31.06,0,0,1,1.89-3.89c3.25-5,7-9.37,12.53-12.18a68.8,68.8,0,0,1,12.8-5.3,32.68,32.68,0,0,1,5.45-1.18,33.31,33.31,0,0,1,6-.58c6.22.42,12.19,1.63,17.69,4.78a27.83,27.83,0,0,1,9.24,8.88,32.7,32.7,0,0,1,2.61,5.79,42.34,42.34,0,0,0,4.55,8.13,30.26,30.26,0,0,0,11.63,9.59,20.92,20.92,0,0,0,4.67,1.52,3.33,3.33,0,0,1,1.51,1v1.86c-2.57,3.13-6.46,5-8.72,8.47-1.71,2.29-4.35,3.15-6.81,4.17a60.61,60.61,0,0,1-9.17,3c-2.75.88-5.49,1.81-8.32,2.43q-6,1.56-12,2.91c-2.47.64-5,1-7.51,1.43-5.8.71-11.72.48-17.34,2.42-2.94.67-5.65,2.05-8.52,2.93a2.88,2.88,0,0,1-2.62-.52C121.76,372.09,117.67,368.82,114.76,364.41Z" transform="translate(-55.48 -270.2)" fill="#010101"/><path d="M271.55,319.79c0-.22-1.14-4.56-1.25-4.79a27.78,27.78,0,0,0-6.42-9.21,22.65,22.65,0,0,0-13.24-5.66,21.5,21.5,0,0,0-6.93.47A24.2,24.2,0,0,0,232.86,306a19.33,19.33,0,0,0-5.84,8.79c-.17.52-.26,1.43-1.13,1.79.44,1.42-.46,2.68-.53,4.06s.16,2.94-.07,4.36c-.26,1.61,1,2.89.67,4.43.88.67.69,1.8,1,2.68a23.1,23.1,0,0,0,9.1,10.81,18.12,18.12,0,0,0,10.77,3.35,27.46,27.46,0,0,1,3.74,0c2.68.23,5-.73,7.38-1.79a23.93,23.93,0,0,0,9.75-7.91c2.37-3.67,4-7.64,3.81-12.15C271.5,322.91,271.55,321.35,271.55,319.79Zm-11.11,12.88a14.64,14.64,0,0,1-7.51,5.18,8.14,8.14,0,0,1-2,.31c-2.18,0-4.36,0-6.29,0-1.31-.7-2.41-1.31-3.54-1.87-3.85-1.92-5.85-4.92-7.08-9.25a14.86,14.86,0,0,1-.44-6,13.86,13.86,0,0,1,2.75-6.63,17.06,17.06,0,0,1,9.3-6.12,11.36,11.36,0,0,1,5.53,0c1.35.46,2.92.25,4.14,1.31s3,1.72,4,2.94c2.29,2.59,4.12,5.51,4.14,9.18,0,.94-.07,1.88,0,2.81C263.72,327.75,262.32,330.38,260.44,332.67Z" transform="translate(-55.48 -270.2)" fill="#010101"/><path d="M357.76,407.43h-6.83V387.19c-.77-2.34-2.24-3.34-3.4-4.59-.56-.24-1.14-.16-1.73-.38-2.92-1.11-8,1.6-8.64,4.51a9.91,9.91,0,0,0,0,2.18V407.4h-6.67c-.49-.6-.18-1.45-.18-2.23,0-4.47,0-8.94,0-13.42,0-2.32.29-4.68-1-7.47a8.52,8.52,0,0,0-3.25-2.36,12.29,12.29,0,0,0-4.19.55,6.88,6.88,0,0,0-4.47,4,10.53,10.53,0,0,0-.85,4c.1,5.6,0,11.2,0,16.89H309.8V374.5h6.53c.53,1.08-.1,2.37.4,3.7,1.64-.16,2.08-1.84,2.75-2.2,3.45-1.16,6.37-2.28,9.53-1.3,3,.93,5.78,2.12,7,5.52a11.26,11.26,0,0,1,9.61-5.78,11.68,11.68,0,0,1,4.76.51,11.17,11.17,0,0,1,6.32,5.62,9.76,9.76,0,0,1,1.11,4.53C357.75,392.48,357.76,399.86,357.76,407.43Z" transform="translate(-55.48 -270.2)" fill="#020202"/><path d="M546.84,376.39h-5.9c-.22.45,0,.94-.71,1.22-4.56-3.32-8.14-4-12.93-2.56-5.35,1.61-8.45,5.63-10.15,10.58a15.39,15.39,0,0,0-.19,9.46,18.09,18.09,0,0,0,6.2,9.61,13.67,13.67,0,0,0,6.07,2.68,11.06,11.06,0,0,0,5.69-.34c2-.66,3.69-2,5.79-2.51v4.87c-1.29,3.6-4.09,4.17-7.05,4.35-1.66.1-3.33-.07-5,0-2.75.19-5.29-.69-7.79-1.58-.74-.26-1.27-.5-1.86-.09v5.81c2.13,2.12,5.07,1.63,7.44,2.71,4-.07,8,.44,11.91-.67a13.31,13.31,0,0,0,6.31-3.57,7.91,7.91,0,0,0,2.38-5.58c0-10.72,0-21.44,0-32.16C547,377.87,547.31,377,546.84,376.39Zm-11.94,24.1c-3.43.66-6.37.05-8.6-2.23a9.61,9.61,0,0,1-2.92-7.43c.42-4.8,3.09-10.66,11.51-9.5a12.35,12.35,0,0,1,5.87,7.24C541.59,393.36,540.12,397.84,534.9,400.49Z" transform="translate(-55.48 -270.2)" fill="#020202"/><path d="M314,327.55a14.24,14.24,0,0,0-2.92-7.5c-2.59-3-5.37-6.09-9.87-6.24-1.45-1.21-3.18-.62-4.74-.54a16.75,16.75,0,0,0-4.47,1.2c-.72.25-1.33,1.12-2,1.13-1,0-1.22,1.24-2.28,1.19v-3.6H281c0,15.59,0,30.86,0,46l.74.74h6.09V342.45a17,17,0,0,0,13,3.86c1.55-1,3.47-1,5.08-2.11a23,23,0,0,0,4.92-4.55,14.49,14.49,0,0,0,3.09-7.11A19.38,19.38,0,0,0,314,327.55Zm-8.38,6.25a8.94,8.94,0,0,1-4.68,5,3.88,3.88,0,0,1-2.23.66c-1.44-.13-2.9,0-4.14,0a11.36,11.36,0,0,1-6.12-6.14,8,8,0,0,1-.47-5.56c1.86-5.27,4.2-8.22,11.83-7.66a10.79,10.79,0,0,0,2.47,1.55c2.76,1.21,3.16,3.85,4,6.12C307.12,329.75,306.35,331.81,305.63,333.8Z" transform="translate(-55.48 -270.2)" fill="#020202"/><path d="M395.84,380.51a15.82,15.82,0,0,0-7.43-5.2c-5.63-2.19-10.53-.23-15.31,2.34-.73-1.13,0-2.25-.56-3.17h-5.91v46.08h6.19V404.17a57.48,57.48,0,0,0,5.74,2.68,15.62,15.62,0,0,0,6.28.68,40.76,40.76,0,0,0,5.79-1.86,12,12,0,0,0,4.94-3.85A18,18,0,0,0,395.84,380.51Zm-11.43,20.14c-6.09.87-9.18-2.51-10.7-6.27s-.87-8,4.28-12.41c6.64-1.75,10-.61,13.42,5.75C392,393.4,391,398.25,384.41,400.65Z" transform="translate(-55.48 -270.2)" fill="#010101"/><path d="M305.18,442.55h-6.79v3.63a2.43,2.43,0,0,1-1.33-1,15.25,15.25,0,0,0-11.2-4.64c-1.09,0-1.84.67-2.86.7a9.14,9.14,0,0,0-5.24,2.34,17.6,17.6,0,0,0-6.05,8.38,20,20,0,0,0-.61,9.62,16.44,16.44,0,0,0,6.57,10.32,15.14,15.14,0,0,0,8.08,3.1c3,.17,5.59-.9,8.2-2.11,1.73-.8,2.76-2.44,4.48-3.69v3.57c1.93,1.42,4,.78,5.91.95l.84-.84Zm-9,21.81c-1.1,1.71-3.09,2.32-4.88,3.18a7.92,7.92,0,0,1-6.63-.16,10.71,10.71,0,0,1-6.21-6.79,6.41,6.41,0,0,1,0-1.86v-4.05c.75-.45.84-1.33,1.21-2,1.79-3.27,4.87-4.39,8.18-5.16.72-.17,3.88.78,4.78,1.23a10,10,0,0,1,5.82,9.39A11.21,11.21,0,0,1,296.18,464.36Z" transform="translate(-55.48 -270.2)" fill="#010101"/><path d="M262.75,427.61v5.82c-.55,1-1.38,1-2.22.95H241.07v13.11h17.26v6.79H241v19.16c-4.08.57-5.37.46-6.89-.57V427.6Z" transform="translate(-55.48 -270.2)" fill="#020202"/><path d="M352.75,325.84c-.17-2.14-1.29-4-1.85-6.09-1.61-.73-1.72-2.73-3.43-3.62a18.73,18.73,0,0,0-5.59-2.4,16,16,0,0,0-9.55.66c-3.7,1.39-6,4.2-8.2,7.17-.72,1-2.05,7.08-2,8.23.06.89.73,1.54.69,2.55a14.92,14.92,0,0,0,2.88,7.82,17.1,17.1,0,0,0,13.36,6.18c1.94,0,3.71-1.15,5.67-.67,1.42-1.07,3.46-.7,4.74-2v-7a21.68,21.68,0,0,1-11.28,2.82,10,10,0,0,1-6.68-2.81c-1.42-1.26-1.64-3-2.5-4.76h23.74C352.78,329.76,352.91,327.79,352.75,325.84Zm-7,.37H329.11c.78-1.75,1-3.68,2.66-4.83a23,23,0,0,1,4.63-2.3c2.11-.86,3.65.93,5.39.33l3.4,3.4C344.92,324,346.38,324.91,345.78,326.21Z" transform="translate(-55.48 -270.2)" fill="#020202"/><path d="M430.26,440.69H438c2.94,6.95,5.62,13.84,8.64,21.08,2.43-7.51,5.62-14.12,8.28-21.07h7.77c-6.14,15.35-12.25,30.66-18.41,46.07h-7.84c1.64-5.31,4.31-10.09,6.06-15.54C438.53,461.38,434.43,451.13,430.26,440.69Z" transform="translate(-55.48 -270.2)" fill="#010101"/><path d="M260.23,364l-3.05,6c-3.32-2-6.91-1.49-10.16-1a14.18,14.18,0,0,0-8.25,4.82,16.13,16.13,0,0,0,7.8,26.46,15.38,15.38,0,0,0,12.28-1.67c2.06,1.05,2.33,3.33,3.92,4.18V404a22.32,22.32,0,0,1-9.28,3.39,21.9,21.9,0,0,1-7.4-.14,26.52,26.52,0,0,1-6-2.16,23.85,23.85,0,0,1-8.24-7.12c-5.8-7.64-5.29-18.78-.54-26.17a20.82,20.82,0,0,1,12.94-9.25C249.71,361.3,255.18,361.23,260.23,364Z" transform="translate(-55.48 -270.2)" fill="#020202"/><path d="M297.77,379.67a15.8,15.8,0,0,0-11.54-5.27,16.07,16.07,0,0,0-8.94,2.5,17.13,17.13,0,0,0-5.75,5.73c-1.63,2.57-1.81,5.51-2.48,8.33.77,3.83,1.31,7.64,4.33,10.7,3.53,3.58,7.44,5.91,12.56,5.86a15.47,15.47,0,0,0,11.19-4.62c3.34-3.33,5.28-7.16,5-12C302.42,386.51,300.73,382.88,297.77,379.67Zm-3.45,16.58a13.55,13.55,0,0,1-3.35,3.14,10.34,10.34,0,0,1-12.13-1.27,9.09,9.09,0,0,1-2.9-6.25c0-1.13,0-2.28,0-3.4,4.05-6.86,6.31-7.59,12.51-7.19a15.41,15.41,0,0,1,5.33,3.75C296.36,387.88,296.75,393.3,294.32,396.25Z" transform="translate(-55.48 -270.2)" fill="#020202"/><path d="M508.93,407.46h-6.78V385.38c-.55-.37-.56-.94-.81-1.32a5.61,5.61,0,0,0-5.91-2.06,10.24,10.24,0,0,0-5,3,5.65,5.65,0,0,0-1.52,3.76c0,6.14,0,12.28,0,18.56h-6.79V374.53h6.77v3.55c1.29-.36,1.76-1.58,2.91-2s2.12-.88,3.22-1.27a9.87,9.87,0,0,1,6.26-.08c1.05.33,2.67-.45,3.23,1.21,2.61,1.09,3.19,3.4,3.86,5.86a15.48,15.48,0,0,1,.53,4.14C508.94,393,508.93,400.1,508.93,407.46Z" transform="translate(-55.48 -270.2)" fill="#020202"/><path d="M390.87,346.23H384v-9c0-3.22-.13-6.46,0-9.67a9.54,9.54,0,0,0-1.93-6c-4.52-1-4.52-1-9.56,1.45l-1.62,3.14c.06,3.16-.95,6.42-.73,9.82s.05,6.81.05,10.27h-6.14V313.32a9.26,9.26,0,0,1,2.86-.13c1,0,2,0,3,0l.94,1c-.08.94-1.29,1.72-.33,2.76.29,0,.58.08.85-.21,3.11-3.3,7.13-4,11.31-3.44a8.15,8.15,0,0,1,5.41,2.59,13.83,13.83,0,0,1,2.22,5.64c.9,4.1.32,8.17.48,12.25S390.87,342,390.87,346.23Z" transform="translate(-55.48 -270.2)" fill="#020202"/><path d="M114.76,364.41c2.59,1.91,4.61,4.42,6.92,6.62,1.58,1.5,3.09,3.08,4.63,4.62h1.57a1.5,1.5,0,0,1,.64,1c.13,5.7,1.58,11.36.61,17.1-1,4-1.93,7.95-3.12,11.87a4.1,4.1,0,0,1-.54.3c-2,.76-13.66.07-15.7-.93.29-1.34.48-2.72.74-4a21.79,21.79,0,0,0,.51-4.08c1.38-1.76,4-1.05,5.55-2.75a68.28,68.28,0,0,0-.93-11.7c-1.51.42-2.89,2-4.62.7.51-5.48.69-11,1.87-16.39C113.31,365.81,114.5,365.48,114.76,364.41Z" transform="translate(-55.48 -270.2)" fill="#0b5090"/><path d="M421.17,400.64c.19-.19.31-.41.49-.47,2.19-.8,3-2.46,3-4.66,0-6.95,0-13.91,0-21h6.87c0,7,.14,14-.07,20.91a13.83,13.83,0,0,1-2.65,7.6c-1.7,2.38-4.27,3.57-6.91,4.36-4.89,1.46-11.38-1.57-13.85-6.16-.27-.51-.17-1.25-.83-1.51-1.34-8.31-.29-16.68-.76-25.14a11.74,11.74,0,0,1,3.38-.18c1.13,0,2.26,0,3.59,0V386c0,3.12-.08,6.24,0,9.35.07,2.14.64,4.08,3,5a3.83,3.83,0,0,0,1.42.34C418.93,400.65,420.07,400.64,421.17,400.64Z" transform="translate(-55.48 -270.2)" fill="#020202"/><path d="M459,375.75v6.69h-6.8v24.94h-6.75l-.82-.78v-24h-4l-.94-.94v-6h4.8V364.62c2.32-1.34,4.51-2.83,7.57-2.68v13.82Z" transform="translate(-55.48 -270.2)" fill="#030303"/><path d="M404.19,442l1.1-1.1V430l6.81-2.74c0,5,0,9.69,0,14.53h6.73v6.28h-6.6v24.67l-1.14.93h-5.77V449.14l-1.1-1.1h-4.55V442Z" transform="translate(-55.48 -270.2)" fill="#020202"/><path d="M338,442.21a40.92,40.92,0,0,1-2.65,6.31c-1.67-.22-3.06-1.25-4.75-1a12.7,12.7,0,0,0-5,1.43,7.7,7.7,0,0,0-3.33,3.86,12.35,12.35,0,0,0-.11,7.88c.85,2.8,2.65,4.5,5.9,5.57,2.45-.13,5.63.59,8.59-1.39,1.95,1.38,1.76,4.15,3.68,5.44-1.31,1.44-3.21,1.65-4.82,2.83-1.44-.49-2.86.57-4.46.66s-2.9-.65-4.41-.78a8.42,8.42,0,0,1-4.14-1.89c-1.18-.92-2.9-1.39-3.48-2.83s-2.09-2.33-2.75-3.85c-3-6.93-1.6-13.31,2.11-17.78C323.6,440.32,331.18,439.2,338,442.21Z" transform="translate(-55.48 -270.2)" fill="#020202"/><path d="M109.77,437.5c-2.42,3.35-4.78,6.75-7.28,10-1,1.35-2.24,2.57-3.34,3.88a9.15,9.15,0,0,1-5.59,2.88c-.74.12-1.24.58-1.91.69a.47.47,0,0,0-.5-.61,27.4,27.4,0,0,1-3.74-.05,35.91,35.91,0,0,1-6.67-1.21l-1-1.79a15.54,15.54,0,0,1,1.51-3.09c1.8-2.28,3.23-4.87,5.48-6.8,2.43-2.07,3.91-5,6.42-7,.48-.38,0-1.37,1-1.31C99.59,433.74,104.68,435.6,109.77,437.5Z" transform="translate(-55.48 -270.2)" fill="#0b5090"/><path d="M181.6,363.16c1.73.16,3.15-.85,4.72-1.27a47.59,47.59,0,0,0,9-3.67c.85-.43,1.26-1.76,2.54-1.31a15.2,15.2,0,0,1,5,5.95c1.39,3.2,3,6.32,3.16,9.84-1.65,2-4,2.66-6.1,3.46a32.49,32.49,0,0,1-6.27,2.17,48.78,48.78,0,0,0-5.82,1.69,2,2,0,0,1-1.14-1c-2.1-4.81-3.81-9.76-5.43-14.74A1.3,1.3,0,0,1,181.6,363.16Z" transform="translate(-55.48 -270.2)" fill="#0b5090"/><path d="M136,372.53l6.4-1.71a2.36,2.36,0,0,1,.86-.15c3.66.45,7.22-.81,10.86-.64a3.91,3.91,0,0,1,.93,2.57c.17,4.53-.14,9.08.53,13.6a3.16,3.16,0,0,1-.83,2.58,7.93,7.93,0,0,1-2.18.69,35.08,35.08,0,0,0-7.19,1.81c-1.93-.3-3.67,1.1-5.62.62a4.33,4.33,0,0,1-1.25-2.76q-1.31-6.54-2.74-13C135.5,374.91,135.08,373.66,136,372.53Z" transform="translate(-55.48 -270.2)" fill="#0b5090"/><path d="M366.61,427.56h6v46a8.73,8.73,0,0,1-2.87.13c-1,0-2,0-3.18,0C366.61,458.36,366.61,443.1,366.61,427.56Z" transform="translate(-55.48 -270.2)" fill="#010101"/><path d="M473.23,407.46h-6.67V374.53a12.33,12.33,0,0,1,3.18-.11c1.13-.05,2.26,0,3.49,0Z" transform="translate(-55.48 -270.2)" fill="#030303"/><path d="M388.9,473.67H383l-.79-.79V440.71c1,0,2.11-.07,3.21-.09s2.25,0,3.48,0C388.9,451.62,388.9,462.51,388.9,473.67Z" transform="translate(-55.48 -270.2)" fill="#060606"/><path d="M356.4,472.9l-.77.77h-5.07c-.93-.53-.94-1.32-.94-2.18,0-4.15,0-8.31,0-12.46V440.79a10.51,10.51,0,0,1,3.27-.16c1.13-.06,2.26,0,3.5,0Z" transform="translate(-55.48 -270.2)" fill="#020202"/><path d="M122.26,415a3.75,3.75,0,0,1-.71,2.81c-1.29,2.47-2.51,5-3.71,7.47a9.82,9.82,0,0,1-2.45,3.46c-3.27.89-6.22-.68-9.26-1.34-2-.43-4.41-.24-5.73-2.41a3.84,3.84,0,0,1,1.09-2.62,36.17,36.17,0,0,0,3-4.9c.66-1.27,1.42-2.48,2.14-3.72,2.91-1.12,5.89-.33,8.79-.09C117.7,413.85,120.21,413.48,122.26,415Z" transform="translate(-55.48 -270.2)" fill="#0c5091"/><path d="M161.61,368.78a.47.47,0,0,1,.49-.61c2.62.16,4.94-1.17,7.48-1.46a27.45,27.45,0,0,0,3.9-1c2.13,5.64,4,11.33,3.75,17.49-3.75,1.05-7.56,1.9-11.27,3.11a4.13,4.13,0,0,1-1.22,0c-1.71-3.19-1.41-6.79-1.93-10.2C162.44,373.64,162.17,371.19,161.61,368.78Z" transform="translate(-55.48 -270.2)" fill="#0b5090"/><path d="M161.61,368.78h1.19c-.36,1.52.73,2.75.71,4.29a10,10,0,0,0,.5,4.46c.54,1.23-.3,2.93.33,4.22.74,1.53.15,3,.39,4.52-.89,1-2.2.7-3.26,1-2.23.55-4.4,1.45-6.73,1.54.34-3.17-.9-6.21-.67-9.4s.05-6.23.05-9.34c1.28,0,2.36-.91,3.76-.67C159.12,369.58,160.26,368.35,161.61,368.78Z" transform="translate(-55.48 -270.2)" fill="#f9d70b"/><path d="M177.23,383.15c-.42-2-.74-4-1.27-6s-1-4-1.33-6c-.31-1.8-1.17-3.52-1.14-5.43a50.13,50.13,0,0,0,8.12-2.5c.72,2.07,1.31,4.2,2.19,6.19a25,25,0,0,1,1.68,4.86c.37,1.69,1.75,3,1.77,4.83,0,.35.69.46.6,1-1.57,1-3.45,1-5.15,1.56A35,35,0,0,1,177.23,383.15Z" transform="translate(-55.48 -270.2)" fill="#f9d70b"/><path d="M100.4,425c1.12.93,2.59.79,3.88,1.17,3,.88,6.11,1.35,9.19,1.94.68.13,1.11,1,1.92.64-1.55,3.12-3.82,5.78-5.62,8.75-.82,0-1.65,0-2.47,0a8.54,8.54,0,0,1-1.88-.69c-3.59-1-7.11-2.28-10.78-3.05-.32-.07-.56-.23-.49-.62,1.26-2.33,3.13-4.24,4.44-6.55A2.79,2.79,0,0,1,100.4,425Z" transform="translate(-55.48 -270.2)" fill="#f9d70b"/><path d="M122.26,415c-4.28.27-8.48-1.06-12.77-.64-1,.1-1.78-.94-2.84-.61.22-2.21,1.53-4,2.16-6.11.26-.86.2-1.93,1-2.63,2.39,0,4.78.11,7.16,0,3.07-.18,6,1.1,9.08.65-.89,3-2.54,5.76-3.13,8.89C122.82,414.85,122.65,415.08,122.26,415Z" transform="translate(-55.48 -270.2)" fill="#f9d70b"/><path d="M111,383.15c.59-.11,1.28.29,1.77-.23,1-1.07,2.56-.74,3.64-1.57.9,4.64.58,9.39,1.58,14.26-2.54-.24-4.58,1.33-7,1.28-.66.09-1.08.93-1.87.62s-1.21.53-1.87.62a3.53,3.53,0,0,1-.47-3.25c.7-3.52.42-7.25,2.35-10.49C109.61,383.76,110.82,384.21,111,383.15Z" transform="translate(-55.48 -270.2)" fill="#f9d70b"/><path d="M109.14,384.4a7.94,7.94,0,0,1-.57,3.79c-.52,1,.52,2.45-.68,3.42.41,2.24-.73,4.33-.62,6.54-1.64-.39-3,.66-4.07,1.42-1.31.89-2.71,1.54-4,2.33a2.48,2.48,0,0,1-.84-1.93c.06-4-.06-8,1.47-11.81A47.09,47.09,0,0,1,109.14,384.4Z" transform="translate(-55.48 -270.2)" fill="#0b5090"/><path d="M99.77,388.15c0,2,.42,4.06-.1,5.88-.75,2.65-.33,5.25-.52,7.86-.22,1.33-1.56,1.48-2.39,1.95-1.47.83-2.68,2.21-4.49,2.43-1.31-2.7-1.71-11.42-.62-13.74.07-.17.09-.44.22-.51A32.92,32.92,0,0,1,99.77,388.15Z" transform="translate(-55.48 -270.2)" fill="#f9d70b"/><path d="M91.65,392.52c0,4.59,1.07,9.13.62,13.74a30.42,30.42,0,0,1-4.94,1.87c-1.45,0-2.9,0-4.34,0-.65,0-.79-.59-1.28-.8v-2.78a55.08,55.08,0,0,1,3.34-4.46,16.93,16.93,0,0,0,3.21-4.58,10.32,10.32,0,0,1,2.48-3C90.89,392.39,91.34,392.52,91.65,392.52Z" transform="translate(-55.48 -270.2)" fill="#0c5091"/><path d="M349.75,427.56h6.66v7.32a12.21,12.21,0,0,1-3.17.11c-1.13.05-2.26,0-3.49,0Z" transform="translate(-55.48 -270.2)" fill="#060606"/><path d="M388.89,435h-6.66v-7.36c1,0,2.08-.07,3.18-.09s2.26,0,3.49,0C388.89,430,388.89,432.32,388.89,435Z" transform="translate(-55.48 -270.2)" fill="#080808"/><path d="M473.28,361.39v7.28h-6.76v-6.51l.77-.77Z" transform="translate(-55.48 -270.2)" fill="#131313"/><path d="M136,372.53a35.35,35.35,0,0,0,1.62,7.45c.4,1.09-.25,2.23.57,3.2s-.14,2.13.5,2.89c.81,1,0,2.21.5,2.91.77,1,.43,1.95.56,2.92-.07.17-.16.5-.21.5-2.09-.2-4,.63-6.09.85a27,27,0,0,1-4.32.53.47.47,0,0,1-.61-.48c.41-4.47-.71-8.86-.64-13.31,0-1.44,0-2.88,0-4.32A66.1,66.1,0,0,1,136,372.53Z" transform="translate(-55.48 -270.2)" fill="#f9d70b"/><path d="M137.88,343.25c-.43-5.4,5.48-10.85,10.31-10.72a11.13,11.13,0,0,1,10.9,11,11,11,0,0,1-3.55,7.88,9.67,9.67,0,0,1-7.5,2.85C142.88,353.85,137.51,349.83,137.88,343.25Z" transform="translate(-55.48 -270.2)" fill="#fff"/><path d="M142.19,341.8c1-2.57,1-2.57,3.56-3.67a6.11,6.11,0,0,1,3.36,2.26v2.5L146.83,345C144.37,345.32,142.93,344,142.19,341.8Z" transform="translate(-55.48 -270.2)" fill="#0c0c0c"/></svg>